<svg id="Layer_1" data-name="Layer 1" xmlns="http://www.w3.org/2000/svg" viewBox="0 0 600 600"><g id="User_Groups" data-name="User Groups"><g style="isolation:isolate"><path d="M57.77,255.93h6.79v50.76q0,15.07-7.71,23t-22.33,7.94q-14.61,0-22.33-7.94t-7.71-23V255.93h6.79v52q0,11.28,6,17.33t17.26,6q11.28,0,17.27-6t6-17.33Z" style="fill:#a166ff"/><path d="M110.38,320.5a7.13,7.13,0,0,0-2.25-5.3q-2.25-2.18-7.54-4.14l-10.47-3.91Q77.8,302.54,77.8,292.07a14.3,14.3,0,0,1,5.35-11.57q5.35-4.42,14-4.43a41.1,41.1,0,0,1,8.4.92,42,42,0,0,1,8.06,2.53v5.41a55.79,55.79,0,0,0-16.81-3q-6.21,0-9.44,2.48c-2.14,1.65-3.22,4.08-3.22,7.3a7.94,7.94,0,0,0,2.25,6q2.24,2.13,8.8,4.66l9.21,3.45q6.45,2.42,9.38,5.93a13.08,13.08,0,0,1,2.94,8.69,15,15,0,0,1-5.7,12.37q-5.7,4.54-15.48,4.55a41.37,41.37,0,0,1-18.76-4.14v-5.41A57,57,0,0,0,96,331.55q7,0,10.7-2.82T110.38,320.5Z" style="fill:#a166ff"/><path d="M131.9,307.84q.1,12.09,5.29,17.84t16,5.75a46.45,46.45,0,0,0,19-4v5.41q-8.18,4.59-19.45,4.6-13.69,0-20.6-7.77t-6.91-23.08q0-14.51,7-22.5t19.51-8q10.49,0,16.06,6t5.58,17.15a45.1,45.1,0,0,1-.69,8.63Zm19.22-25.9q-18.19,0-19.22,20.6h35c.07-1.07.11-2.34.11-3.79q0-8.29-4-12.55T151.12,281.94Z" style="fill:#a166ff"/><path d="M186.68,335.69V277.8h5.76l.69,8.4a28.74,28.74,0,0,1,8.58-6.85,21.7,21.7,0,0,1,9.49-2,38.9,38.9,0,0,1,4.72.34v5.87c-2-.15-3.8-.23-5.41-.23a21.38,21.38,0,0,0-9.38,2,24.69,24.69,0,0,0-7.88,6.33v44.08Z" style="fill:#a166ff"/><path d="M292.23,330.63a52.13,52.13,0,0,0,15.42-2.07V301.85H287.17v-6.1h27.28V332A52.64,52.64,0,0,1,291.08,337Q253,337,253,296.1q0-20,9.67-30.56t28-10.53a52.13,52.13,0,0,1,21.18,4.49v5.87a88.52,88.52,0,0,0-11.11-3.11,49.19,49.19,0,0,0-9.5-.92q-15.88,0-23.48,8.06t-7.59,25.2v2.88q0,16.92,7.88,25T292.23,330.63Z" style="fill:#a166ff"/><path d="M330.79,335.69V277.8h5.75l.69,8.4a28.87,28.87,0,0,1,8.58-6.85,21.72,21.72,0,0,1,9.5-2,38.75,38.75,0,0,1,4.71.34v5.87c-2-.15-3.79-.23-5.41-.23a21.41,21.41,0,0,0-9.38,2,24.8,24.8,0,0,0-7.88,6.33v44.08Z" style="fill:#a166ff"/><path d="M391.79,337.42q-12.66,0-19.68-8.12t-7-22.61q0-14.51,7-22.56t19.68-8.06q12.66,0,19.68,8.06t7,22.56q0,14.51-7,22.61T391.79,337.42Zm0-6q19.92,0,19.91-24.74t-19.91-24.63q-19.91,0-19.91,24.63T391.79,331.43Z" style="fill:#a166ff"/><path d="M472.36,335.69l-.69-6.33q-10.94,8.06-22.67,8.06-8.29,0-12.72-4.49t-4.43-13.12v-42h6.56v39.25q0,7.59,2.87,11t9.1,3.39A32,32,0,0,0,461,329.71a44.74,44.74,0,0,0,10.59-5.64V277.8h6.56v57.89Z" style="fill:#a166ff"/><path d="M494.92,359.4V277.8h5.75l.58,6.44a39.75,39.75,0,0,1,10.3-6.21,28,28,0,0,1,10.3-2q11.17,0,17.61,8T545.91,306q0,14.16-6.79,22.56t-18.3,8.4q-10.59,0-19.34-7.83V359.4Zm25.67-77.34q-9.56,0-19.11,7.36v33.73a36.13,36.13,0,0,0,9.21,5.92,23.91,23.91,0,0,0,9.44,1.9q9.43,0,14.21-6.15t4.78-18.36Q539.12,282.06,520.59,282.06Z" style="fill:#a166ff"/><path d="M589.19,320.5a7.13,7.13,0,0,0-2.25-5.3c-1.49-1.45-4-2.83-7.54-4.14l-10.47-3.91q-12.31-4.61-12.32-15.08A14.31,14.31,0,0,1,562,280.5q5.34-4.42,14-4.43a41,41,0,0,1,8.4.92,42,42,0,0,1,8.06,2.53v5.41a55.78,55.78,0,0,0-16.8-3q-6.23,0-9.44,2.48t-3.22,7.3a7.93,7.93,0,0,0,2.24,6q2.25,2.13,8.8,4.66l9.21,3.45q6.45,2.42,9.38,5.93a13.08,13.08,0,0,1,2.94,8.69,15,15,0,0,1-5.7,12.37q-5.7,4.54-15.48,4.55a41.4,41.4,0,0,1-18.76-4.14v-5.41a57.06,57.06,0,0,0,19.22,3.68q7,0,10.7-2.82T589.19,320.5Z" style="fill:#a166ff"/></g></g><g id="AWS"><g style="isolation:isolate"><path d="M29.62,234.4l-2.51-8.1H15l-2.41,8.1H4.48L17,198.85h8.47L38,234.4Zm-13-13.64h8.93L21,205.88Z" style="fill:#232f3e"/><path d="M66.26,234.4l-5.65-25.09L55.17,234.4H46.81L37,198.85h8.52L51.12,226l5.65-26.32h8.1l5.75,26.22,5.54-27.09h8.31l-9.8,35.55Z" style="fill:#232f3e"/><path d="M96.22,218.86a15.17,15.17,0,0,1-6.56-4.13,10.26,10.26,0,0,1,1.56-13.88q3.57-2.88,9.57-2.87a27.34,27.34,0,0,1,9.85,1.84v5.85a31.3,31.3,0,0,0-9.23-1.54q-6.06,0-6.06,3.9a3,3,0,0,0,1.05,2.36,12.75,12.75,0,0,0,3.93,2l3.79,1.39q4.77,1.74,6.8,4.08a8.93,8.93,0,0,1,2,6.08,10.11,10.11,0,0,1-3.8,8.33q-3.8,3.06-10.41,3.06a31.09,31.09,0,0,1-5.75-.54,22.24,22.24,0,0,1-4.93-1.46v-5.85a43,43,0,0,0,5.49,1.23,34,34,0,0,0,5.29.46,8.4,8.4,0,0,0,4.67-1.1,3.59,3.59,0,0,0,1.64-3.16,3.23,3.23,0,0,0-1-2.51,13.43,13.43,0,0,0-4-2.06Z" style="fill:#232f3e"/></g></g><path d="M13.5,376.78a12.44,12.44,0,0,1-5.1-3.25,7.08,7.08,0,0,1-1.59-4.73,7.71,7.71,0,0,1,2.78-6.25,11.35,11.35,0,0,1,7.49-2.31A22.46,22.46,0,0,1,25,361.76v4.12a24.77,24.77,0,0,0-7.39-1.27c-3.7,0-5.55,1.25-5.55,3.77a3.09,3.09,0,0,0,1,2.37,10.76,10.76,0,0,0,3.55,1.87l3.55,1.32a12,12,0,0,1,5.08,3.17,7.12,7.12,0,0,1,1.57,4.75,8.18,8.18,0,0,1-3,6.73c-2,1.62-4.76,2.43-8.27,2.43a22.71,22.71,0,0,1-4.49-.44,16.83,16.83,0,0,1-3.95-1.25v-4.12a27.73,27.73,0,0,0,4.29,1.06,23.63,23.63,0,0,0,4,.39A8,8,0,0,0,20,385.57a3.52,3.52,0,0,0,1.59-3.11,3.2,3.2,0,0,0-1-2.38,10.37,10.37,0,0,0-3.39-1.86Z" style="fill:#232f3e"/><path d="M30.73,375.63a18.66,18.66,0,0,1,1.66-8.14,12.13,12.13,0,0,1,4.83-5.37,14.61,14.61,0,0,1,7.55-1.88,14.63,14.63,0,0,1,7.4,1.82,12.35,12.35,0,0,1,4.9,5.3,18.44,18.44,0,0,1,1.73,8.27,18.8,18.8,0,0,1-1.65,8.14,12.13,12.13,0,0,1-4.83,5.37A14.51,14.51,0,0,1,44.77,391a14.48,14.48,0,0,1-7.4-1.82,12.24,12.24,0,0,1-4.9-5.3A18.28,18.28,0,0,1,30.73,375.63Zm5.26,0q0,5.43,2.25,8.25a7.85,7.85,0,0,0,6.53,2.82,7.86,7.86,0,0,0,6.53-2.82q2.25-2.82,2.25-8.25t-2.25-8.25a7.86,7.86,0,0,0-6.53-2.82,7.85,7.85,0,0,0-6.53,2.82Q36,370.2,36,375.63Z" style="fill:#232f3e"/><path d="M82.81,360.92H88v18.61q0,5.52-3,8.5c-2,2-5,3-8.78,3s-6.74-1-8.78-3-3.05-4.82-3.05-8.5V360.92h5.17v18.95a7,7,0,0,0,1.7,5.07,6.58,6.58,0,0,0,5,1.76,6.6,6.6,0,0,0,5-1.76,7,7,0,0,0,1.7-5.07Z" style="fill:#232f3e"/><path d="M101.08,390.3V365.16h-9.2v-4.24h23.58v4.24h-9.21V390.3Z" style="fill:#232f3e"/><path d="M138.19,390.3V377.41H124.7V390.3h-5.17V360.92h5.17v12.34h13.49V360.92h5.17V390.3Z" style="fill:#232f3e"/><path d="M180,390.3l-2.46-7.38H165.83l-2.37,7.38h-5.17L169,360.92h5.59l10.58,29.38Zm-13-11.15h9.33l-4.68-13.57Z" style="fill:#232f3e"/><path d="M194.57,376.78a12.44,12.44,0,0,1-5.1-3.25,7.08,7.08,0,0,1-1.59-4.73,7.71,7.71,0,0,1,2.78-6.25,11.35,11.35,0,0,1,7.49-2.31,22.46,22.46,0,0,1,7.93,1.52v4.12a24.77,24.77,0,0,0-7.39-1.27c-3.7,0-5.55,1.25-5.55,3.77a3.09,3.09,0,0,0,1,2.37,10.76,10.76,0,0,0,3.55,1.87l3.55,1.32a12,12,0,0,1,5.08,3.17,7.12,7.12,0,0,1,1.57,4.75,8.18,8.18,0,0,1-3,6.73c-2,1.62-4.76,2.43-8.27,2.43a22.71,22.71,0,0,1-4.49-.44,16.83,16.83,0,0,1-3.95-1.25v-4.12a27.73,27.73,0,0,0,4.29,1.06,23.63,23.63,0,0,0,4,.39,7.94,7.94,0,0,0,4.55-1.09,3.52,3.52,0,0,0,1.59-3.11,3.2,3.2,0,0,0-1-2.38,10.37,10.37,0,0,0-3.39-1.86Z" style="fill:#232f3e"/><path d="M213.67,390.3V360.92h5.17V390.3Z" style="fill:#232f3e"/><path d="M244.58,390.3l-2.46-7.38H230.38L228,390.3h-5.17l10.75-29.38h5.59l10.58,29.38Zm-13-11.15h9.33l-4.68-13.57Z" style="fill:#232f3e"/></svg>